<svg xmlns="http://www.w3.org/2000/svg" width="16" height="16" viewBox="0 0 16 16">
    <g fill="none" fill-rule="evenodd">
        <g fill-rule="nonzero">
            <g>
                <path fill="#790707" d="M8 4.052h-.481c-1.271 0-2.294.498-3.092 1.295-.948.95-1.59 2.326-1.96 3.805-.306 1.217-.52 2.496-.22 3.45.287.912 1.077 1.54 2.78 1.54h5.945c1.704 0 2.493-.628 2.78-1.54.3-.954.087-2.233-.219-3.45-.371-1.479-1.012-2.856-1.96-3.805-.799-.797-1.821-1.295-3.092-1.295H8zm-.414-2.189L8 1.86l.416.004h.001c.133.003.273.008.416.014.716.032 1.608.089 2.469.226.85.136 1.679.352 2.284.698.544.311 1.001.73 1.312 1.235.285.464.45 1.008.45 1.62 0 .34-.05.67-.141.978-.096.322-.239.624-.417.897-.08.124-.187.218-.309.277-.121.059-.262.084-.408.071h-.001c-.149-.014-.282-.064-.39-.142-.109-.08-.197-.192-.254-.328-.482-1.139-1.156-2.137-2.044-2.825-.795-.614-1.758-.982-2.903-.982h-.962c-1.146 0-2.109.368-2.903.982-.888.688-1.563 1.686-2.044 2.825-.057.136-.146.248-.254.328-.108.078-.242.129-.39.141l-.001.001c-.146.013-.287-.013-.409-.071-.121-.059-.228-.153-.309-.276-.178-.274-.32-.576-.416-.898-.091-.309-.141-.638-.141-.977 0-.613.165-1.157.45-1.621.31-.506.767-.923 1.311-1.235.606-.346 1.434-.562 2.285-.698.86-.137 1.752-.194 2.468-.226l.42-.014zM5.262 8.114c0-1.512 1.226-2.738 2.738-2.738s2.737 1.226 2.737 2.738S9.512 10.852 8 10.852 5.262 9.626 5.262 8.114z" transform="translate(-1174 -40) translate(1174 40)"/>
            </g>
        </g>
    </g>
</svg>
